<svg width="18" height="14" viewBox="0 0 18 14" fill="none" xmlns="http://www.w3.org/2000/svg">
<path d="M0 3.0625H7.88764L8.49438 4.375H0.606742L0 3.0625ZM0.808989 5.6875H8.69663L9.30337 7H1.41573L0.808989 5.6875ZM13.9551 12.6875C14.6265 12.6875 15.1685 12.1012 15.1685 11.375C15.1685 10.6488 14.6265 10.0625 13.9551 10.0625C13.2836 10.0625 12.7416 10.6488 12.7416 11.375C12.7416 12.1012 13.2836 12.6875 13.9551 12.6875ZM15.1685 4.8125H13.1461V7H16.7542L15.1685 4.8125ZM5.86517 12.6875C6.53663 12.6875 7.07865 12.1012 7.07865 11.375C7.07865 10.6488 6.53663 10.0625 5.86517 10.0625C5.19371 10.0625 4.65169 10.6488 4.65169 11.375C4.65169 12.1012 5.19371 12.6875 5.86517 12.6875ZM15.573 3.5L18 7V11.375H16.382C16.382 12.8275 15.298 14 13.9551 14C12.6121 14 11.5281 12.8275 11.5281 11.375H8.29213C8.29213 12.8275 7.2 14 5.86517 14C4.52225 14 3.4382 12.8275 3.4382 11.375H1.82022V8.3125H3.4382V9.625H4.05303C4.49798 9.09125 5.14517 8.75 5.86517 8.75C6.58517 8.75 7.23236 9.09125 7.6773 9.625H11.5281V1.75H1.82022C1.82022 0.77875 2.54022 0 3.4382 0H13.1461V3.5H15.573Z" fill="#C5C5C5"/>
</svg>
