<svg width="16" height="16" viewBox="0 0 16 16" fill="none" xmlns="http://www.w3.org/2000/svg">
<path d="M13.9603 7.33332C13.6537 4.55332 11.447 2.34666 8.66699 2.03999V0.666656H7.33366V2.03999C4.55366 2.34666 2.34699 4.55332 2.04033 7.33332H0.666992V8.66666H2.04033C2.34699 11.4467 4.55366 13.6533 7.33366 13.96V15.3333H8.66699V13.96C11.447 13.6533 13.6537 11.4467 13.9603 8.66666H15.3337V7.33332H13.9603ZM8.00033 12.6667C5.42033 12.6667 3.33366 10.58 3.33366 7.99999C3.33366 5.41999 5.42033 3.33332 8.00033 3.33332C10.5803 3.33332 12.667 5.41999 12.667 7.99999C12.667 10.58 10.5803 12.6667 8.00033 12.6667Z" fill="#C5C5C5"/>
</svg>
